<svg width="69" height="68" viewBox="0 0 69 68" fill="none" xmlns="http://www.w3.org/2000/svg">
<rect width="69" height="68" rx="34" fill="white"/>
<path d="M31.712 30.432C33.92 31.712 35.712 32.864 37.088 33.888C38.464 34.88 39.616 36.048 40.544 37.392C41.504 38.704 41.984 40.176 41.984 41.808C41.984 43.536 41.184 45.392 39.584 47.376C37.984 49.36 36.032 51.04 33.728 52.416C31.424 53.792 29.344 54.48 27.488 54.48C24.256 54.48 21.376 53.984 18.848 52.992C16.32 51.968 14.336 50.592 12.896 48.864C11.488 47.104 10.784 45.168 10.784 43.056C10.784 41.456 11.52 39.856 12.992 38.256C14.464 36.656 16.912 34.704 20.336 32.4C18.128 30.96 16.4 29.488 15.152 27.984C13.904 26.48 13.28 24.784 13.28 22.896C13.28 21.36 14.032 19.712 15.536 17.952C17.04 16.192 18.864 14.704 21.008 13.488C23.184 12.272 25.168 11.664 26.96 11.664C29.328 11.664 31.44 12.064 33.296 12.864C35.152 13.632 36.592 14.688 37.616 16.032C38.64 17.344 39.152 18.784 39.152 20.352C39.024 21.728 38.432 23.168 37.376 24.672C36.352 26.144 34.464 28.064 31.712 30.432ZM26.432 16.128C25.12 16.128 24.048 16.56 23.216 17.424C22.416 18.256 22.016 19.312 22.016 20.592C22.016 22.16 22.592 23.568 23.744 24.816C24.928 26.064 26.624 27.36 28.832 28.704C29.824 27.232 30.448 26.096 30.704 25.296C30.992 24.496 31.136 23.584 31.136 22.56C31.136 20.736 30.688 19.216 29.792 18C28.896 16.784 27.776 16.176 26.432 16.176V16.128ZM27.728 49.872C29.36 49.872 30.672 49.296 31.664 48.144C32.688 46.96 33.2 45.568 33.2 43.968C33.2 42.752 32.784 41.616 31.952 40.56C31.152 39.504 30.144 38.56 28.928 37.728C27.744 36.864 26.128 35.824 24.08 34.608L23.024 33.984C21.616 35.424 20.688 36.624 20.24 37.584C19.792 38.544 19.568 39.584 19.568 40.704C19.568 42.304 19.936 43.808 20.672 45.216C21.44 46.624 22.448 47.76 23.696 48.624C24.976 49.456 26.32 49.872 27.728 49.872Z" fill="#222222"/>
<circle cx="57" cy="50" r="4" fill="#EF4D32"/>
</svg>
